# xmcd
#
# Track frame offsets:
#	150
#	16120
#	34567
#	49588
#	67690
#	86772
#	104741
#	120542
#	140785
#	155054
#	173820
#	190511
#	200860
#
# Disc length: 2880 seconds
#
# Revision: 1
# Processed by: cddbd v1.4PL0 Copyright (c) Steve Scherf et al.
# Submitted via: audiograbber 1.82.02
#
DISCID=ae0b3e0d
DTITLE=Dirty Boots - Endeless Ride
DYEAR=2003
DGENRE=Country
TTITLE0=Can`t  Get Enough
TTITLE1=Pick Up Truck
TTITLE2=Endless Ride
TTITLE3=Until It`s Gone
TTITLE4=Let Country Live
TTITLE5=Up To Me
TTITLE6=Drink All Night
TTITLE7=Wings
TTITLE8=Laughin` All The Way ( To The Bank )
TTITLE9=Keep This Party Rockin`
TTITLE10=In Love
TTITLE11=(Instru)Metal Attack
TTITLE12=Together Forever
EXTD=
EXTT0=
EXTT1=
EXTT2=
EXTT3=
EXTT4=
EXTT5=
EXTT6=
EXTT7=
EXTT8=
EXTT9=
EXTT10=
EXTT11=
EXTT12=
PLAYORDER=
